<svg width="77" height="61" viewBox="0 0 77 61" fill="none" xmlns="http://www.w3.org/2000/svg">
<path d="M68.426 26.0289C67.8074 25.5494 67.0562 25.241 66.2579 25.139C65.4597 25.0369 64.6467 25.1452 63.9116 25.4516L50.2333 31.0994L42.2858 17.7956C41.9059 17.1745 41.3556 16.658 40.6908 16.2987C40.026 15.9393 39.2705 15.75 38.5013 15.75C37.7321 15.75 36.9766 15.9393 36.3118 16.2987C35.647 16.658 35.0966 17.1745 34.7168 17.7956L26.7693 31.0994L13.091 25.4516C12.3544 25.1456 11.5403 25.0372 10.7408 25.1384C9.94124 25.2397 9.18816 25.5466 8.56665 26.0244C7.94514 26.5023 7.48 27.1321 7.2238 27.8426C6.96759 28.5532 6.93056 29.3161 7.11687 30.0451L13.9831 57.2299C14.1143 57.7562 14.3593 58.2522 14.7032 58.688C15.047 59.1238 15.4826 59.4902 15.9834 59.7651C16.6615 60.142 17.4368 60.3415 18.2271 60.3424C18.6113 60.3418 18.9935 60.2911 19.3625 60.1918C31.8779 56.9788 45.0976 56.9788 57.6131 60.1918C58.7558 60.4708 59.9711 60.3173 60.9921 59.7651C61.496 59.4937 61.9339 59.1284 62.2782 58.692C62.6225 58.2557 62.8657 57.7578 62.9925 57.2299L69.8857 30.0451C70.0699 29.3159 70.0308 28.5533 69.7729 27.8436C69.5149 27.1339 69.0484 26.5053 68.426 26.0289Z" fill="#FFAA00"/>
<circle cx="38.5" cy="9" r="9" fill="#FFAA00"/>
<circle cx="38.5" cy="40.5" r="6.75" fill="#BE9502"/>
<circle cx="71.125" cy="23.625" r="5.625" fill="#FFAA00"/>
<circle cx="5.875" cy="23.625" r="5.625" fill="#FFAA00"/>
<circle cx="21.625" cy="43.875" r="3.375" fill="#BE9502"/>
<circle cx="55.375" cy="43.875" r="3.375" fill="#BE9502"/>
</svg>
